<svg width="276" height="239" xmlns="http://www.w3.org/2000/svg">
    <g fill="none" fill-rule="evenodd">
        <path d="M258.62 203.58c0 8.339-5.664 16.018-13.775 18.686-.064.028-.128.04-.195.058l-1.884.463a1.609 1.609 0 01-.262.059l-65.793 9.725h79.037c7.7 0 13.963-6.3 13.963-14.047V44.32c0-6.762-4.764-12.411-11.095-13.748 0 .006.003.012.003.015V203.58zM32.544 222.79l-1.887-.46c-.067-.018-.135-.036-.199-.06-8.06-2.641-13.48-10.158-13.48-18.687V31.941a2.865 2.865 0 01-.162-.935c0-.147.022-.291.028-.435C10.493 31.898 5.71 37.557 5.71 44.319v174.206c0 7.743 6.275 14.046 13.984 14.046h79.016l-65.902-9.728a1.85 1.85 0 01-.265-.052z"/>
        <path d="M137.71 139.57c-1.104 0-1.999.83-1.999 1.857v20.293c0 1.02.891 1.85 1.999 1.85 1.107 0 2.001-.83 2.001-1.85v-20.293c0-1.026-.894-1.856-2.001-1.856zM137.71 180.57c-1.104 0-1.999.828-1.999 1.852v20.294c0 1.024.891 1.855 1.999 1.855 1.107 0 2.001-.83 2.001-1.855v-20.294c0-1.024-.894-1.851-2.001-1.851z"
              fill="#1C1C1C" fill-rule="nonzero"/>
        <path d="M257.813 24.79a19.807 19.807 0 00-11.508-12.088C244.08 5.363 237.185 0 229.035 0a2.4 2.4 0 00-.256.012l-2.982.271c-.185.012-.36.052-.529.099l-83.95 24.327h-6.92L50.45.382a2.555 2.555 0 00-.526-.099l-2.988-.27A2.361 2.361 0 0046.68 0c-8.147 0-15.043 5.366-17.262 12.705a19.79 19.79 0 00-11.556 12.103C7.858 25.749 0 34.19 0 44.443v174.786c0 10.878 8.842 19.725 19.712 19.725h117.813c.08.015.154.046.234.046h.356c.077 0 .148-.03.225-.046h117.942c10.87 0 19.718-8.847 19.718-19.725V44.44c.003-10.36-8.033-18.862-18.187-19.65zm-11.007 170.398V19a14.142 14.142 0 014.34 5.068 14.025 14.025 0 011.498 5.642c.015.246.04.486.04.732 0 .465.113.909.316 1.3v171.973c0 5.927-4.064 11.411-9.898 13.37l-1.66.412L177 227l55.218-14.423 1.707-.416c.067-.018.132-.03.196-.05 7.47-2.407 12.685-9.37 12.685-16.923zM23.491 24.387A14.171 14.171 0 0128.313 19v176.246c0 7.717 5.005 14.509 12.445 16.898.065.024.133.037.197.055L98 227l-64.608-9.476-1.67-.415a14.04 14.04 0 01-9.611-13.35V30.333c0-.11-.03-.21-.046-.314-.019-.157-.025-.316-.065-.461.16-1.85.68-3.594 1.49-5.171zm-4.356 208.607c-7.793 0-14.135-6.33-14.135-14.116V43.816C5 37.021 9.833 31.331 16.252 30c-.006.145-.027.29-.027.438 0 .326.061.644.163.94v172.488a19.709 19.709 0 0013.626 18.779c.065.027.132.04.2.058l1.908.466c.086.027.176.046.265.058L99 233H19.135v-.006zm118.345-11.34a1.873 1.873 0 00-1.872 1.882V231l-91.502-23.883-1.602-.385c-5.033-1.672-8.409-6.285-8.409-11.523V16.78c0-.084-.027-.164-.03-.25-.019-.154-.022-.32-.065-.471.08-.84.255-1.657.494-2.439.32-1.025.764-1.998 1.332-2.888A12.409 12.409 0 0146.202 5l2.578.234 49.326 14.331 15.56 4.518 4.182 1.219 15.234 4.428 2.52.733v7.381c0 1.038.838 1.881 1.872 1.881a1.878 1.878 0 001.875-1.881V30.377l2.234-.65 15.274-4.437 4.146-1.204 15.605-4.536 49.284-14.316L228.47 5a12.388 12.388 0 0110.36 5.734 12.11 12.11 0 011.354 2.888c.288.936.45 1.918.503 2.929.01.2.028.397.028.603 0 .437.104.853.285 1.238v176.814c0 5.102-3.566 9.823-8.691 11.523l-92.963 24.24v-7.43a1.863 1.863 0 00-1.866-1.885zm132.52-2.77c0 7.782-6.331 14.116-14.113 14.116H176l66.5-9.776c.087-.012.179-.031.265-.056l1.904-.462c.068-.018.133-.037.197-.062 8.199-2.678 13.923-10.401 13.923-18.778V30.016c0-.004-.003-.01-.003-.016C265.182 31.347 270 37.02 270 43.817v175.067z"
              fill="#1C1C1C" fill-rule="nonzero"/>
        <path d="M183.545 34.664c-11.59-1.678-28.776-.581-39.075 8.041-4.755 3.982-7.421 9.108-7.984 15.23-.156.279-.27.581-.27.918v20.702c0 1.044.836 1.887 1.874 1.887a1.88 1.88 0 001.877-1.887V60.06c.076-.195.138-.395.15-.62.221-5.62 2.494-10.28 6.749-13.838 8.754-7.322 24.456-8.9 36.141-7.204 24.678 3.571 33.322 23 33.236 38.551-.11 18.743-12.413 39.355-35.718 42.454-13.285 1.776-27.436-.822-40.558-7.109V100.26a1.88 1.88 0 00-1.877-1.887 1.88 1.88 0 00-1.874 1.887v10.133A88.926 88.926 0 01118.38 97.65a149.469 149.469 0 01-2.633-2.496c-.147-3.55-1.652-6.81-4.463-8.842-1.788-1.291-3.95-1.977-6.248-1.977-.212 0-.423.034-.635.05-10.552-9.306-23.235-17.27-36.449-10.752-11.227 5.546-12.972 16.911-14.505 26.94-.482 3.138-.936 6.098-1.637 8.915a1.89 1.89 0 001.364 2.292 1.895 1.895 0 002.276-1.371c.744-2.988 1.232-6.179 1.708-9.26 1.533-10.002 2.977-19.45 12.45-24.127 10.535-5.199 20.952.56 30.296 8.428-2.504 1.087-4.792 2.926-6.54 5.37a16.201 16.201 0 00-1.001 1.593l-.175.445c-.022.08-.053.16-.074.22a2.019 2.019 0 01-.123.278c-.034.061-.068.126-.144.222l-.274.457a14.394 14.394 0 00-.87 2.787l-3.495 11.307-40.377 60.878a4.38 4.38 0 00-.77 3.287 4.425 4.425 0 001.775 2.88 4.37 4.37 0 002.558.827c1.413 0 2.746-.689 3.533-1.789l44.484-57.983 9.451-6.886c.415-.25.82-.507 1.217-.8l.36-.33a5.8 5.8 0 01.223-.245s.003 0 .003-.006l.206-.068.344-.423c.092-.115.175-.195.25-.254l-1.187-1.47 1.469 1.279.288-.142.228-.235a17.651 17.651 0 001.508-1.826 16.386 16.386 0 002.433-5.017c.215.204.445.426.657.621a92.35 92.35 0 0020.365 14.214v6.318a1.88 1.88 0 001.874 1.893 1.883 1.883 0 001.877-1.893v-4.51c10.453 4.741 21.495 7.28 32.265 7.28 2.952 0 5.888-.19 8.785-.58 25.43-3.386 38.857-25.796 38.974-46.176.091-17.069-9.39-38.388-36.455-42.308zM105.08 99.358c-2.334 3.225-5.269 4.166-6.361 3.38-.341-.241-.57-.673-.666-1.275-.21-1.272.167-3.47 1.857-5.812 1.811-2.506 4.078-3.651 5.415-3.651.39 0 .703.08.95.26 1.214.882.96 4.101-1.195 7.098zm4.676 2.945c-.309.43-.642.841-.988 1.225-.074.04-.141.087-.2.127a4.69 4.69 0 00-.434.318c-.22.186-.428.381-.627.616a3.694 3.694 0 00-.319.272l-.168.164c-.089.09-.174.183-.254.27-.254.176-.523.346-.897.58l-10.008 7.31-44.703 58.543a.644.644 0 01-.52.272.647.647 0 01-.63-.55c-.016-.09-.022-.291.15-.533l40.423-61.23 3.838-12.25c.14-.705.346-1.385.603-2.044.14-.198.26-.4.306-.495l.174-.331c.074-.158.144-.322.212-.501.042-.108.08-.223.116-.337.205-.356.428-.712.667-1.049 1.736-2.437 4.212-4.114 6.758-4.68.196.183.392.356.588.535-2.265.69-4.551 2.431-6.302 4.897-1.99 2.79-2.923 6.022-2.495 8.636.26 1.605 1.013 2.902 2.167 3.743.879.634 1.956.971 3.122.971 2.874 0 6.091-2.004 8.387-5.227 1.39-1.955 2.182-4.034 2.452-5.967l.826.81c-.199 1.986-.927 4.05-2.244 5.905z"
              fill="#1C1C1C" fill-rule="nonzero"/>
    </g>
</svg>